<?xml version="1.0"?>
<svg xmlns="http://www.w3.org/2000/svg" height="512px" viewBox="0 0 496 496" width="512px" class=""><g><path d="m452.601562 144c16.6875-9.960938 27.398438-28.039062 27.398438-48 0-21.777344-12.664062-41.414062-32.070312-50.585938-1.34375-25.269531-22.328126-45.414062-47.929688-45.414062-16.679688 0-31.390625 8.542969-40 21.496094-8.609375-12.953125-23.320312-21.496094-40-21.496094-25.625 0-46.558594 20.191406-47.871094 45.496094-19.386718 9.175781-32.128906 28.71875-32.128906 50.503906 0 19.976562 10.734375 38.046875 27.480469 48h-187.480469v-64h-40c-22.054688 0-40 17.945312-40 40v336c0 22.054688 17.945312 40 40 40h456v-352zm-52.601562-128c17.648438 0 32 14.351562 31.929688 32.480469-.082032.550781-.152344 1.105469-.1875 1.664062l-.414063 6.09375 5.777344 2.007813c16.078125 5.585937 26.894531 20.761718 26.894531 37.753906 0 13.726562-7.113281 26.183594-18.265625 33.457031-6.183594-19.378906-24.335937-33.457031-45.734375-33.457031v16c17.648438 0 32 14.351562 32 32s-14.351562 32-32 32-32-14.351562-32-32v-96c0-17.648438 14.351562-32 32-32zm-20.945312 344-19.054688 38.113281-19.054688-38.113281zm4.945312-16h-16v-32h-16v32h-16v-154.824219c5.960938-2.121093 11.382812-5.328125 16-9.472656v116.296875h16v-116.296875c4.617188 4.144531 10.039062 7.351563 16 9.472656zm-128-248c0-13.726562 7.113281-26.183594 18.273438-33.457031 6.175781 19.378906 24.328124 33.457031 45.726562 33.457031v-16c-17.648438 0-32-14.351562-32-32s14.351562-32 32-32 32 14.351562 32 32v96c0 17.648438-14.351562 32-32 32s-32-14.351562-31.929688-32.480469c.082032-.550781.152344-1.105469.1875-1.664062l.414063-6.101563-5.777344-2.011718c-16.078125-5.574219-26.894531-20.75-26.894531-37.742188zm-240 24c0-13.230469 10.769531-24 24-24h24v320h-24c-9 0-17.3125 2.984375-24 8.015625zm464 360h-440c-13.230469 0-24-10.769531-24-24s10.769531-24 24-24h40v-272h194.753906c6.597656 18.625 24.390625 32 45.246094 32v161.886719l40 80 40-80v-161.886719c20.855469 0 38.59375-13.382812 45.199219-32h34.800781zm0 0" data-original="#000000" class="active-path" data-old_color="#000000" fill="#D72323"/><path d="m272 448h176v16h-176zm0 0" data-original="#000000" class="active-path" data-old_color="#000000" fill="#D72323"/><path d="m96 320h160v-144h-160zm16-128h128v112h-128zm0 0" data-original="#000000" class="active-path" data-old_color="#000000" fill="#D72323"/><path d="m128 208h96v16h-96zm0 0" data-original="#000000" class="active-path" data-old_color="#000000" fill="#D72323"/><path d="m192 240h32v16h-32zm0 0" data-original="#000000" class="active-path" data-old_color="#000000" fill="#D72323"/><path d="m128 240h48v16h-48zm0 0" data-original="#000000" class="active-path" data-old_color="#000000" fill="#D72323"/><path d="m128 272h96v16h-96zm0 0" data-original="#000000" class="active-path" data-old_color="#000000" fill="#D72323"/><path d="m160 336c-35.289062 0-64 28.710938-64 64s28.710938 64 64 64 64-28.710938 64-64-28.710938-64-64-64zm0 112c-26.472656 0-48-21.527344-48-48s21.527344-48 48-48 48 21.527344 48 48-21.527344 48-48 48zm0 0" data-original="#000000" class="active-path" data-old_color="#000000" fill="#D72323"/></g> </svg>
